<svg width="21" height="17" viewBox="0 0 21 17" fill="none" xmlns="http://www.w3.org/2000/svg">
<path d="M17.7682 2.08569C16.4382 1.46569 14.9982 1.01569 13.4982 0.755692C13.485 0.755271 13.4719 0.757739 13.4598 0.762923C13.4477 0.768106 13.4369 0.775878 13.4282 0.785692C13.2482 1.11569 13.0382 1.54569 12.8982 1.87569C11.3072 1.63569 9.68916 1.63569 8.09816 1.87569C7.95816 1.53569 7.74816 1.11569 7.55816 0.785692C7.54816 0.765692 7.51816 0.755692 7.48816 0.755692C5.98816 1.01569 4.55816 1.46569 3.21816 2.08569C3.20816 2.08569 3.19816 2.09569 3.18816 2.10569C0.468164 6.17569 -0.281836 10.1357 0.0881641 14.0557C0.0881641 14.0757 0.0981641 14.0957 0.118164 14.1057C1.91816 15.4257 3.64816 16.2257 5.35816 16.7557C5.38816 16.7657 5.41816 16.7557 5.42816 16.7357C5.82816 16.1857 6.18816 15.6057 6.49816 14.9957C6.51816 14.9557 6.49816 14.9157 6.45816 14.9057C5.88816 14.6857 5.34816 14.4257 4.81816 14.1257C4.77816 14.1057 4.77816 14.0457 4.80816 14.0157C4.91816 13.9357 5.02816 13.8457 5.13816 13.7657C5.15816 13.7457 5.18816 13.7457 5.20816 13.7557C8.64816 15.3257 12.3582 15.3257 15.7582 13.7557C15.7782 13.7457 15.8082 13.7457 15.8282 13.7657C15.9382 13.8557 16.0482 13.9357 16.1582 14.0257C16.1982 14.0557 16.1982 14.1157 16.1482 14.1357C15.6282 14.4457 15.0782 14.6957 14.5082 14.9157C14.4682 14.9257 14.4582 14.9757 14.4682 15.0057C14.7882 15.6157 15.1482 16.1957 15.5382 16.7457C15.5682 16.7557 15.5982 16.7657 15.6282 16.7557C17.3482 16.2257 19.0782 15.4257 20.8782 14.1057C20.8982 14.0957 20.9082 14.0757 20.9082 14.0557C21.3482 9.52569 20.1782 5.59569 17.8082 2.10569C17.7982 2.09569 17.7882 2.08569 17.7682 2.08569V2.08569ZM7.01816 11.6657C5.98816 11.6657 5.12816 10.7157 5.12816 9.54569C5.12816 8.37569 5.96816 7.42569 7.01816 7.42569C8.07816 7.42569 8.91816 8.38569 8.90816 9.54569C8.90816 10.7157 8.06816 11.6657 7.01816 11.6657ZM13.9882 11.6657C12.9582 11.6657 12.0982 10.7157 12.0982 9.54569C12.0982 8.37569 12.9382 7.42569 13.9882 7.42569C15.0482 7.42569 15.8882 8.38569 15.8782 9.54569C15.8782 10.7157 15.0482 11.6657 13.9882 11.6657Z" fill="white"/>
</svg>
