<svg width="21" height="17" viewBox="0 0 21 17" fill="none" xmlns="http://www.w3.org/2000/svg">
<path d="M21 2C20.2271 2.35 19.3939 2.58 18.5306 2.69C19.414 2.16 20.0966 1.32 20.4178 0.31C19.5846 0.81 18.6611 1.16 17.6874 1.36C16.8944 0.5 15.7801 0 14.5153 0C12.1563 0 10.229 1.92 10.229 4.29C10.229 4.63 10.2691 4.96 10.3394 5.27C6.76578 5.09 3.58365 3.38 1.46558 0.79C1.09417 1.42 0.883365 2.16 0.883365 2.94C0.883365 4.43 1.63623 5.75 2.80067 6.5C2.08795 6.5 1.42543 6.3 0.843213 6V6.03C0.843213 8.11 2.32887 9.85 4.29637 10.24C3.66469 10.4122 3.00153 10.4362 2.35899 10.31C2.63163 11.1625 3.1656 11.9084 3.88582 12.4429C4.60604 12.9775 5.47631 13.2737 6.37428 13.29C4.85211 14.4904 2.96529 15.1393 1.0239 15.13C0.6826 15.13 0.3413 15.11 0 15.07C1.90727 16.29 4.17591 17 6.60516 17C14.5153 17 18.8619 10.46 18.8619 4.79C18.8619 4.6 18.8619 4.42 18.8518 4.23C19.695 3.63 20.4178 2.87 21 2V2Z" fill="white"/>
</svg>
